<svg width="186" height="54" viewBox="0 0 186 54" fill="none" xmlns="http://www.w3.org/2000/svg">
<path d="M0 34.8061H7.51771V31.5906H3.55936V3.21287H7.51771V0H0V34.8061Z" fill="#F6FDFF"/>
<path d="M176.845 0V3.21287H180.803V31.5906H176.845V34.8061H184.362V0H176.845Z" fill="#F6FDFF"/>
<path d="M34.058 25.0073C33.7457 25.1622 33.2706 25.3486 32.7771 25.3486C31.9529 25.3486 31.0683 24.6608 31.0683 23.1463V7.11078H27.4617V9.78292C25.5219 7.43101 22.5269 6.5753 20.2485 6.5753C15.0958 6.5753 9.88012 10.363 9.88012 17.5999C9.88012 24.8367 15.2428 28.7478 20.2905 28.7478C23.3511 28.7478 26.1886 27.2779 27.7189 24.9496C28.2859 27.2857 30.0315 28.7084 32.4096 28.7084C33.5751 28.7084 34.5594 28.3383 35.4177 27.5745L35.5674 27.4406L34.2917 24.8892L34.058 25.0073ZM27.4617 17.7652C27.4617 22.637 23.8734 25.2672 20.4952 25.2672C17.117 25.2672 13.5287 22.6344 13.5287 17.6025C13.5287 13.8541 15.836 10.0612 20.2485 10.0612C24.9339 10.0612 27.4617 14.0326 27.4617 17.7679V17.7652Z" fill="#F6FDFF"/>
<path d="M49.8941 6.74064C46.9305 6.74064 44.24 8.00847 42.3921 10.2501V7.11075H38.7461V32.2337H42.3921V25.9339C44.0012 27.7083 46.5027 28.7478 49.2352 28.7478C51.9677 28.7478 54.6241 27.7398 56.5744 25.9076C58.7715 23.8419 59.9343 20.9125 59.9343 17.4345C59.9343 10.0848 54.7291 6.73802 49.8941 6.73802V6.74064ZM56.3277 17.5605C56.3277 22.6186 52.7184 25.2672 49.1538 25.2672C45.8963 25.2672 42.3921 22.9599 42.3921 17.8886C42.3921 14.0589 44.828 10.1819 49.4819 10.1819C52.7788 10.1819 56.3277 12.4918 56.3277 17.5605Z" fill="#F6FDFF"/>
<path d="M74.5051 6.5753C69.3918 6.5753 63.89 10.0507 63.89 17.6812C63.89 25.3118 69.3288 28.8292 74.3817 28.8292C77.9332 28.8292 81.1566 27.2332 83.4613 24.3354L83.6109 24.1464L81.154 21.8391L80.9807 22.0963C79.5502 24.2251 77.382 25.3486 74.7098 25.3486C70.93 25.3486 68.4495 23.1935 67.8641 19.4242H83.6319L83.6739 19.2142C83.8471 18.3506 83.8839 17.4135 83.8839 16.7783C83.8839 14.0143 83.0465 11.4891 81.5293 9.66743C79.8415 7.64363 77.4109 6.5753 74.5051 6.5753ZM80.0699 16.0223H67.7302C68.1581 12.3369 70.6308 9.97454 74.0956 9.97454C78.0723 9.97454 79.9439 12.9695 80.0699 16.0223Z" fill="#F6FDFF"/>
<path d="M96.4335 6.82205C94.4228 6.82205 92.7088 7.68826 91.6011 9.22908V7.11079H87.9551V28.3383H91.6011V15.9987C91.6011 12.5627 93.3571 10.4287 96.1867 10.4287C96.9716 10.4287 97.8431 10.6282 98.5807 10.9773L98.8799 11.119L99.6516 7.50715L99.4574 7.42053C98.6017 7.03467 97.5281 6.82205 96.4335 6.82205Z" fill="#F6FDFF"/>
<path d="M112.826 24.4692C112.115 25.1071 110.989 25.5533 110.086 25.5533C108.345 25.5533 107.348 24.3459 107.348 22.2433V15.8858H113.346V12.4866H107.348V6.82205H103.744V22.2013C103.744 27.0574 106.891 28.7898 109.839 28.7898C111.65 28.7898 113.304 28.1415 114.619 26.913L114.787 26.7581L113.046 24.275L112.826 24.4719V24.4692Z" fill="#F6FDFF"/>
<path d="M149.257 6.82205C147.246 6.82205 145.532 7.68826 144.424 9.22908V7.11079H140.778V28.3383H144.424V15.9987C144.424 12.5627 146.181 10.4287 149.01 10.4287C149.795 10.4287 150.666 10.6282 151.404 10.9773L151.703 11.119L152.475 7.50715L152.281 7.42053C151.425 7.03467 150.349 6.82205 149.257 6.82205Z" fill="#F6FDFF"/>
<path d="M164.431 6.5753C159.318 6.5753 153.816 10.0507 153.816 17.6812C153.816 25.3118 159.255 28.8292 164.308 28.8292C167.86 28.8292 171.083 27.2332 173.388 24.3354L173.537 24.1464L171.08 21.8391L170.907 22.0963C169.477 24.2251 167.308 25.3486 164.636 25.3486C160.856 25.3486 158.376 23.1935 157.79 19.4242H173.558L173.6 19.2142C173.773 18.3506 173.81 17.4135 173.81 16.7783C173.81 14.0143 172.973 11.4891 171.456 9.66743C169.768 7.64363 167.337 6.5753 164.431 6.5753ZM169.996 16.0223H157.657C158.084 12.3369 160.557 9.97454 164.022 9.97454C167.999 9.97454 169.87 12.9695 169.996 16.0223Z" fill="#F6FDFF"/>
<path d="M132.788 19.4426C132.788 23.3458 129.578 24.7606 127.418 24.7606C125.257 24.7606 122.05 23.3432 122.05 19.4426V6.22358H118.372V20.188C118.372 25.7528 123.722 28.8292 127.42 28.8292C131.119 28.8292 136.468 25.7528 136.468 20.188V12.7911H132.791V19.4426H132.788Z" fill="#F6FDFF"/>
<path d="M137.521 46.6261C137.521 49.2588 135.657 50.6763 133.746 50.6763C132.838 50.6763 131.851 50.3377 131.174 49.5659V53.6949H129.465V42.7438H131.145V43.8069C131.699 43.0667 132.623 42.6047 133.718 42.6047C135.534 42.6047 137.521 43.9434 137.521 46.6234V46.6261ZM135.828 46.6103C135.828 44.9304 134.673 44.1298 133.518 44.1298C132.363 44.1298 131.177 44.9461 131.177 46.5946C131.177 48.243 132.363 49.1197 133.534 49.1197C134.705 49.1197 135.828 48.2719 135.828 46.6077V46.6103Z" fill="#F6FDFF"/>
<path d="M145.894 47.3793H140.303C140.566 48.5973 141.55 49.075 142.553 49.075C143.401 49.075 144.201 48.7364 144.739 47.9804L145.834 49.0435C144.97 50.1381 143.787 50.6762 142.493 50.6762C140.477 50.6762 138.458 49.243 138.458 46.5788C138.458 43.9145 140.398 42.5443 142.416 42.5443C144.312 42.5443 145.96 43.7911 145.96 46.4108C145.96 46.6732 145.96 46.9804 145.9 47.382L145.894 47.3793ZM140.256 45.9619H144.246C144.215 44.6836 143.322 44.0667 142.335 44.0667C141.348 44.0667 140.395 44.6993 140.256 45.9619Z" fill="#F6FDFF"/>
<path d="M184.541 50.6605C183.787 50.6605 182.984 50.2431 182.769 49.3218C182.108 50.2457 180.966 50.6762 179.934 50.6762C178.055 50.6762 176.222 49.2588 176.222 46.626C176.222 43.9932 178.194 42.5443 180.118 42.5443C181.01 42.5443 182.042 42.8356 182.583 43.6992V42.7438H184.263V48.4136C184.263 48.9543 184.541 49.1223 184.832 49.1223C185.032 49.1223 185.294 49.0304 185.449 48.9228L185.942 50.062C185.572 50.4793 185.05 50.6631 184.541 50.6631V50.6605ZM182.554 46.5788C182.554 44.8831 181.383 44.0667 180.212 44.0667C179.042 44.0667 177.918 44.8673 177.918 46.5919C177.918 48.3164 179.044 49.117 180.199 49.117C181.354 49.117 182.556 48.2692 182.556 46.5761L182.554 46.5788Z" fill="#F6FDFF"/>
<path d="M175.724 49.1748C175.645 49.1853 175.648 49.1827 175.572 49.1827C175.018 49.1827 174.585 48.8756 174.585 47.9962V39.6963H172.876V48.0881C172.876 49.936 174.031 50.6762 175.293 50.6762C175.745 50.6762 176.207 50.5791 176.637 50.3954C176.191 49.9229 175.978 49.6499 175.721 49.1748H175.724Z" fill="#F6FDFF"/>
<path d="M169.986 41.8277V46.9777C169.986 47.928 169.503 49.0357 168.14 49.0357C167.282 49.0357 166.282 48.4949 166.282 46.9777V43.2766H164.628V47.256C164.628 48.3086 165.012 49.1905 165.736 49.8074C166.371 50.3455 167.224 50.6421 168.14 50.6421C169.826 50.6421 171.639 49.5816 171.639 47.256V41.8303H169.986V41.8277Z" fill="#F6FDFF"/>
<path d="M146.887 45.9278C146.887 43.6021 148.7 42.5417 150.386 42.5417C151.299 42.5417 152.152 42.8383 152.79 43.3764C153.515 43.9906 153.898 44.8726 153.898 45.9278V49.957H152.244V46.206C152.244 44.6862 151.244 44.1481 150.386 44.1481C149.023 44.1481 148.54 45.2584 148.54 46.206V51.3561H146.887V45.9278Z" fill="#F6FDFF"/>
<path d="M164.253 49.7286C164.253 49.7286 164.24 49.7102 164.232 49.6997C164.08 49.4897 163.956 49.2587 163.859 49.0146C163.717 49.0855 163.573 49.1196 163.421 49.1196C163.13 49.1196 162.851 48.9516 162.851 48.4109V39.6936H161.142V43.5732C160.914 43.2792 160.607 43.0535 160.258 42.8855C159.775 42.6414 159.221 42.5416 158.709 42.5416H158.693C158.489 42.5416 158.284 42.56 158.079 42.5915C158.048 42.5968 158.014 42.5994 157.982 42.6046C157.958 42.6099 157.932 42.6151 157.909 42.6204C156.625 42.8724 155.449 43.7386 155.003 45.2427C154.879 45.6495 154.811 46.0984 154.811 46.5919V46.6207C154.811 48.3715 155.625 49.5816 156.719 50.1985C156.754 50.2168 156.785 50.2378 156.817 50.2562C156.853 50.2746 156.89 50.2903 156.927 50.3087C157.418 50.5476 157.956 50.6736 158.507 50.6736H158.523C159.554 50.6736 160.694 50.2431 161.358 49.3191C161.573 50.2431 162.374 50.6578 163.13 50.6578C163.636 50.6578 164.156 50.4741 164.526 50.062C164.437 49.9596 164.345 49.8546 164.261 49.7391C164.258 49.7339 164.256 49.7312 164.25 49.726L164.253 49.7286ZM159.006 49.1118C158.932 49.117 158.859 49.1223 158.785 49.1223C157.63 49.1223 156.504 48.2902 156.504 46.5971C156.504 44.904 157.52 44.1743 158.586 44.0798C158.657 44.0746 158.728 44.0693 158.798 44.0693C159.966 44.0693 161.135 44.9145 161.14 46.5866C161.137 48.1694 160.095 49.012 159.003 49.1091L159.006 49.1118Z" fill="#F6FDFF"/>
<path d="M112.377 42.5862C111.388 42.5862 110.537 42.9511 109.967 43.6152V39.8353H108.188V50.4688H109.936V49.6131C110.527 50.2562 111.451 50.6342 112.437 50.6342C113.424 50.6342 114.335 50.2431 115.015 49.5632C115.763 48.8125 116.16 47.7862 116.16 46.5971C116.16 43.9643 114.257 42.5889 112.377 42.5889V42.5862ZM112.212 49.0067C111.13 49.0067 109.967 48.2534 109.967 46.5945C109.967 44.9355 111.122 44.1848 112.199 44.1848C113.275 44.1848 114.398 44.9434 114.398 46.6102C114.398 48.277 113.264 49.0067 112.212 49.0067Z" fill="#F6FDFF"/>
<path d="M122.425 42.7832V46.4764C122.425 47.5368 121.827 48.676 120.509 48.676C119.551 48.676 118.955 48.0119 118.955 46.941V42.7832H117.175V47.1982C117.175 49.3953 118.763 50.3954 120.236 50.3954C121.152 50.3954 121.932 49.9649 122.451 49.18V50.2064C122.451 51.6842 121.444 52.3457 120.446 52.3457C119.648 52.3457 118.963 51.9519 118.567 51.3167L117.12 52.3719C117.913 53.5426 119.265 53.9888 120.37 53.9888C122.273 53.9888 124.197 52.6895 124.197 50.2064V42.7858H122.42L122.425 42.7832Z" fill="#F6FDFF"/>
</svg>
