<svg width="245" height="71" viewBox="0 0 245 71" fill="none" xmlns="http://www.w3.org/2000/svg">
<path d="M0 45.7731H9.88643V41.5444H4.68086V4.2252H9.88643V0H0V45.7731Z" fill="#0A2342"/>
<path d="M232.565 0V4.2252H237.771V41.5444H232.565V45.7731H242.452V0H232.565Z" fill="#0A2342"/>
<path d="M44.7892 32.8862C44.3784 33.0898 43.7536 33.3349 43.1047 33.3349C42.0207 33.3349 40.8574 32.4305 40.8574 30.4387V9.35069H36.1144V12.8648C33.5634 9.77183 29.6247 8.64648 26.6284 8.64648C19.8522 8.64648 12.9932 13.6277 12.9932 23.1447C12.9932 32.6618 20.0455 37.8052 26.6837 37.8052C30.7086 37.8052 34.4402 35.8721 36.4527 32.8102C37.1983 35.8825 39.4939 37.7535 42.6214 37.7535C44.154 37.7535 45.4485 37.2667 46.5773 36.2622L46.7741 36.0862L45.0964 32.7308L44.7892 32.8862ZM36.1144 23.3622C36.1144 29.7691 31.3956 33.2279 26.9529 33.2279C22.5102 33.2279 17.7914 29.7656 17.7914 23.1482C17.7914 18.2188 20.8257 13.2307 26.6284 13.2307C32.7902 13.2307 36.1144 18.4535 36.1144 23.3657V23.3622Z" fill="#0A2342"/>
<path d="M65.6146 8.86429C61.7173 8.86429 58.1791 10.5316 55.7489 13.4796V9.35102H50.9541V42.3898H55.7489V34.1051C57.8649 36.4386 61.1547 37.8056 64.7482 37.8056C68.3417 37.8056 71.835 36.48 74.3998 34.0705C77.2891 31.3538 78.8184 27.5014 78.8184 22.9276C78.8184 13.2621 71.9731 8.86084 65.6146 8.86084V8.86429ZM74.0754 23.0933C74.0754 29.7452 69.3289 33.2283 64.6411 33.2283C60.3573 33.2283 55.7489 30.194 55.7489 23.5248C55.7489 18.4884 58.9523 13.3898 65.0726 13.3898C69.4083 13.3898 74.0754 16.4275 74.0754 23.0933Z" fill="#0A2342"/>
<path d="M97.9812 8.64648C91.2568 8.64648 84.0215 13.2169 84.0215 23.2517C84.0215 33.2866 91.174 37.9122 97.819 37.9122C102.489 37.9122 106.729 35.8134 109.759 32.0025L109.956 31.7539L106.725 28.7197L106.497 29.058C104.616 31.8575 101.765 33.3349 98.2505 33.3349C93.2797 33.3349 90.0176 30.5009 89.2478 25.5439H109.984L110.039 25.2677C110.267 24.132 110.315 22.8996 110.315 22.0643C110.315 18.4294 109.214 15.1086 107.219 12.7129C104.999 10.0514 101.803 8.64648 97.9812 8.64648ZM105.299 21.0701H89.0717C89.6344 16.2235 92.8861 13.1168 97.4427 13.1168C102.672 13.1168 105.134 17.0555 105.299 21.0701Z" fill="#0A2342"/>
<path d="M126.819 8.97168C124.175 8.97168 121.92 10.1108 120.464 12.1371V9.3514H115.669V37.2674H120.464V21.0397C120.464 16.5211 122.773 13.7147 126.494 13.7147C127.526 13.7147 128.672 13.977 129.643 14.4361L130.036 14.6225L131.051 9.87264L130.795 9.75873C129.67 9.25129 128.258 8.97168 126.819 8.97168Z" fill="#0A2342"/>
<path d="M148.376 32.1792C147.441 33.0181 145.96 33.6049 144.773 33.6049C142.484 33.6049 141.172 32.017 141.172 29.252V20.8913H149.06V16.421H141.172V8.97168H136.433V29.1967C136.433 35.5829 140.572 37.8612 144.448 37.8612C146.83 37.8612 149.005 37.0085 150.734 35.393L150.955 35.1894L148.666 31.9238L148.376 32.1827V32.1792Z" fill="#0A2342"/>
<path d="M196.286 8.97168C193.641 8.97168 191.387 10.1108 189.931 12.1371V9.3514H185.136V37.2674H189.931V21.0397C189.931 16.5211 192.24 13.7147 195.961 13.7147C196.993 13.7147 198.139 13.977 199.109 14.4361L199.503 14.6225L200.518 9.87264L200.262 9.75873C199.137 9.25129 197.722 8.97168 196.286 8.97168Z" fill="#0A2342"/>
<path d="M216.241 8.64648C209.517 8.64648 202.281 13.2169 202.281 23.2517C202.281 33.2866 209.434 37.9122 216.079 37.9122C220.749 37.9122 224.988 35.8134 228.019 32.0025L228.216 31.7539L224.985 28.7197L224.757 29.058C222.876 31.8575 220.024 33.3349 216.51 33.3349C211.539 33.3349 208.277 30.5009 207.508 25.5439H228.243L228.299 25.2677C228.527 24.132 228.575 22.8996 228.575 22.0643C228.575 18.4294 227.474 15.1086 225.478 12.7129C223.259 10.0514 220.062 8.64648 216.241 8.64648ZM223.559 21.0701H207.331C207.894 16.2235 211.146 13.1168 215.702 13.1168C220.932 13.1168 223.393 17.0555 223.559 21.0701Z" fill="#0A2342"/>
<path d="M174.628 25.5687C174.628 30.7017 170.406 32.5623 167.565 32.5623C164.724 32.5623 160.506 30.6983 160.506 25.5687V8.18457H155.67V26.549C155.67 33.8672 162.705 37.9129 167.569 37.9129C172.433 37.9129 179.468 33.8672 179.468 26.549V16.8214H174.632V25.5687H174.628Z" fill="#0A2342"/>
<path d="M180.852 61.3177C180.852 64.78 178.401 66.6441 175.888 66.6441C174.694 66.6441 173.396 66.1988 172.505 65.1839V70.6138H170.258V56.2123H172.467V57.6103C173.195 56.6368 174.411 56.0293 175.85 56.0293C178.239 56.0293 180.852 57.7898 180.852 61.3143V61.3177ZM178.625 61.297C178.625 59.0877 177.107 58.0349 175.588 58.0349C174.069 58.0349 172.508 59.1084 172.508 61.2763C172.508 63.4441 174.069 64.5971 175.608 64.5971C177.148 64.5971 178.625 63.4821 178.625 61.2935V61.297Z" fill="#0A2342"/>
<path d="M191.864 62.3077H184.512C184.857 63.9095 186.151 64.5377 187.47 64.5377C188.585 64.5377 189.638 64.0924 190.346 63.0982L191.785 64.4963C190.649 65.9358 189.092 66.6434 187.391 66.6434C184.74 66.6434 182.085 64.7586 182.085 61.2549C182.085 57.7511 184.636 55.9492 187.291 55.9492C189.783 55.9492 191.951 57.5889 191.951 61.034C191.951 61.3792 191.951 61.783 191.871 62.3112L191.864 62.3077ZM184.45 60.4437H189.697C189.655 58.7626 188.481 57.9514 187.184 57.9514C185.886 57.9514 184.633 58.7833 184.45 60.4437Z" fill="#0A2342"/>
<path d="M242.687 66.6227C241.697 66.6227 240.64 66.0738 240.357 64.8622C239.487 66.0773 237.986 66.6434 236.629 66.6434C234.158 66.6434 231.748 64.7793 231.748 61.317C231.748 57.8547 234.34 55.9492 236.871 55.9492C238.044 55.9492 239.401 56.3324 240.112 57.4681V56.2116H242.321V63.6678C242.321 64.3789 242.687 64.5998 243.071 64.5998C243.333 64.5998 243.678 64.479 243.882 64.3375L244.531 65.8356C244.044 66.3845 243.357 66.6261 242.687 66.6261V66.6227ZM240.074 61.2549C240.074 59.0249 238.535 57.9514 236.995 57.9514C235.455 57.9514 233.978 59.0042 233.978 61.2721C233.978 63.5401 235.459 64.5929 236.978 64.5929C238.497 64.5929 240.078 63.478 240.078 61.2514L240.074 61.2549Z" fill="#0A2342"/>
<path d="M231.092 64.6691C230.989 64.683 230.992 64.6795 230.892 64.6795C230.163 64.6795 229.594 64.2756 229.594 63.1192V52.2041H227.347V63.24C227.347 65.6702 228.866 66.6437 230.526 66.6437C231.12 66.6437 231.727 66.516 232.293 66.2743C231.707 65.653 231.427 65.294 231.089 64.6691H231.092Z" fill="#0A2342"/>
<path d="M223.546 55.0073V61.7801C223.546 63.0297 222.911 64.4864 221.12 64.4864C219.991 64.4864 218.676 63.7753 218.676 61.7801V56.9128H216.501V62.146C216.501 63.5302 217.005 64.6901 217.958 65.5013C218.793 66.2089 219.915 66.599 221.12 66.599C223.336 66.599 225.721 65.2044 225.721 62.146V55.0108H223.546V55.0073Z" fill="#0A2342"/>
<path d="M193.168 67.5345V60.3993C193.168 57.3409 195.553 55.9463 197.769 55.9463C198.971 55.9463 200.093 56.3364 200.931 57.044C201.884 57.8518 202.388 59.0116 202.388 60.3993V65.6981H200.213V60.7652C200.213 58.7665 198.898 58.0589 197.769 58.0589C195.978 58.0589 195.343 59.5191 195.343 60.7652V67.538H193.168V67.5345Z" fill="#0A2342"/>
<path d="M216.007 65.398C216.007 65.398 215.989 65.3739 215.979 65.3601C215.779 65.0839 215.616 64.7801 215.489 64.4591C215.302 64.5523 215.112 64.5972 214.912 64.5972C214.529 64.5972 214.163 64.3762 214.163 63.6651V52.2012H211.916V57.3032C211.616 56.9166 211.212 56.6197 210.753 56.3988C210.118 56.0777 209.389 55.9466 208.716 55.9466H208.695C208.426 55.9466 208.157 55.9707 207.888 56.0121C207.846 56.019 207.801 56.0225 207.76 56.0294C207.729 56.0363 207.694 56.0432 207.663 56.0501C205.975 56.3815 204.429 57.5206 203.842 59.4986C203.68 60.0337 203.59 60.624 203.59 61.2729V61.3109C203.59 63.6134 204.66 65.2047 206.099 66.0159C206.144 66.0401 206.186 66.0677 206.227 66.0919C206.275 66.116 206.324 66.1368 206.372 66.1609C207.018 66.475 207.725 66.6407 208.45 66.6407H208.471C209.828 66.6407 211.326 66.0746 212.199 64.8595C212.482 66.0746 213.535 66.62 214.529 66.62C215.195 66.62 215.879 66.3784 216.366 65.8364C216.248 65.7018 216.127 65.5637 216.017 65.4118C216.013 65.4049 216.01 65.4015 216.003 65.3946L216.007 65.398ZM209.106 64.5868C209.009 64.5937 208.913 64.6006 208.816 64.6006C207.297 64.6006 205.816 63.5064 205.816 61.2798C205.816 59.0533 207.152 58.0937 208.554 57.9694C208.647 57.9625 208.74 57.9556 208.833 57.9556C210.369 57.9556 211.906 59.0671 211.913 61.266C211.909 63.3476 210.539 64.4556 209.103 64.5834L209.106 64.5868Z" fill="#0A2342"/>
<path d="M147.786 56.0044C146.484 56.0044 145.366 56.4842 144.617 57.3576V52.3867H142.276V66.3706H144.575V65.2453C145.352 66.091 146.567 66.5881 147.865 66.5881C149.163 66.5881 150.361 66.0738 151.255 65.1797C152.239 64.1924 152.76 62.8427 152.76 61.279C152.76 57.8167 150.257 56.0078 147.786 56.0078V56.0044ZM147.568 64.4479C146.146 64.4479 144.617 63.4572 144.617 61.2755C144.617 59.0939 146.136 58.1066 147.551 58.1066C148.966 58.1066 150.444 59.1042 150.444 61.2962C150.444 63.4882 148.952 64.4479 147.568 64.4479Z" fill="#0A2342"/>
<path d="M161 56.2637V61.1206C161 62.5152 160.213 64.0133 158.48 64.0133C157.22 64.0133 156.436 63.14 156.436 61.7316V56.2637H154.096V62.0699C154.096 64.9592 156.184 66.2744 158.121 66.2744C159.326 66.2744 160.351 65.7082 161.034 64.6761V66.0258C161.034 67.9693 159.709 68.8392 158.397 68.8392C157.348 68.8392 156.447 68.3214 155.925 67.486L154.023 68.8737C155.066 70.4133 156.844 71.0001 158.297 71.0001C160.8 71.0001 163.33 69.2914 163.33 66.0258V56.2671H160.993L161 56.2637Z" fill="#0A2342"/>
</svg>
