<svg width="214" height="182" viewBox="0 0 214 182" fill="none" xmlns="http://www.w3.org/2000/svg">
<path d="M0 182H35.2579V166.919H16.6933V15.0683H35.2579V0H0V182Z" fill="#C0F9FF"/>
<path d="M178.219 0V15.0683H196.784V166.919H178.219V182H213.477V0H178.219Z" fill="#C0F9FF"/>
<path d="M164.422 126.664C162.957 127.39 160.728 128.264 158.414 128.264C154.548 128.264 150.4 125.039 150.4 117.936V42.7295H133.485V55.2618C124.387 44.2314 110.341 40.2181 99.6549 40.2181C75.489 40.2181 51.0276 57.9824 51.0276 91.9231C51.0276 125.864 76.1784 144.207 99.8519 144.207C114.206 144.207 127.514 137.313 134.691 126.393C137.35 137.35 145.537 144.022 156.69 144.022C162.156 144.022 166.773 142.286 170.799 138.704L171.5 138.076L165.517 126.11L164.422 126.664ZM133.485 92.6987C133.485 115.547 116.656 127.883 100.812 127.883C84.9682 127.883 68.1395 115.535 68.1395 91.9354C68.1395 74.3557 78.9606 56.5667 99.6549 56.5667C121.63 56.5667 133.485 75.1928 133.485 92.711V92.6987Z" fill="#C0F9FF"/>
</svg>
