<svg width="300" height="300" viewBox="0 0 300 300" fill="none" xmlns="http://www.w3.org/2000/svg">
<rect width="300" height="300" fill="#C0F9FF"/>
<path d="M43 241H78.2579V225.919H59.6933V74.0683H78.2579V59H43V241Z" fill="#6563FC"/>
<path d="M221.219 59V74.0683H239.784V225.919H221.219V241H256.477V59H221.219Z" fill="#6563FC"/>
<path d="M207.422 185.664C205.957 186.39 203.728 187.264 201.414 187.264C197.548 187.264 193.4 184.039 193.4 176.936V101.729H176.485V114.262C167.387 103.231 153.341 99.2181 142.655 99.2181C118.489 99.2181 94.0276 116.982 94.0276 150.923C94.0276 184.864 119.178 203.207 142.852 203.207C157.206 203.207 170.514 196.313 177.691 185.393C180.35 196.35 188.537 203.022 199.69 203.022C205.156 203.022 209.773 201.286 213.799 197.704L214.5 197.076L208.517 185.11L207.422 185.664ZM176.485 151.699C176.485 174.547 159.656 186.883 143.812 186.883C127.968 186.883 111.139 174.535 111.139 150.935C111.139 133.356 121.961 115.567 142.655 115.567C164.63 115.567 176.485 134.193 176.485 151.711V151.699Z" fill="#6563FC"/>
</svg>
